<?xml version="1.0" encoding="utf-8" standalone="no"?>
<!DOCTYPE svg PUBLIC "-//W3C//DTD SVG 1.1//EN"
  "http://www.w3.org/Graphics/SVG/1.1/DTD/svg11.dtd">
<svg xmlns:xlink="http://www.w3.org/1999/xlink" width="432pt" height="504pt" viewBox="0 0 432 504" xmlns="http://www.w3.org/2000/svg" version="1.1">
 <metadata>
  <rdf:RDF xmlns:dc="http://purl.org/dc/elements/1.1/" xmlns:cc="http://creativecommons.org/ns#" xmlns:rdf="http://www.w3.org/1999/02/22-rdf-syntax-ns#">
   <cc:Work>
    <dc:type rdf:resource="http://purl.org/dc/dcmitype/StillImage"/>
    <dc:format>image/svg+xml</dc:format>
    <dc:creator>
     <cc:Agent>
      <dc:title>Matplotlib v3.11.2, https://matplotlib.org/</dc:title>
     </cc:Agent>
    </dc:creator>
   </cc:Work>
  </rdf:RDF>
 </metadata>
 <defs>
  <style type="text/css">*{stroke-linejoin: round; stroke-linecap: butt}</style>
 </defs>
 <g id="figure_1">
  <g id="patch_1">
   <path d="M 0 504
L 432 504
L 432 0
L 0 0
z
" style="fill: #ffffff"/>
  </g>
  <g id="axes_1">
   <g id="patch_2">
    <path d="M 36 91.44
L 396 91.44
Q 403.2 91.44 403.2 84.24
L 403.2 52.56
Q 403.2 45.36 396 45.36
L 36 45.36
Q 28.8 45.36 28.8 52.56
L 28.8 84.24
Q 28.8 91.44 36 91.44
z
" clip-path="url(#p10567e2240)" style="fill: #f3f6fa; stroke: #b3c5d5; stroke-width: 1.4; stroke-linejoin: miter"/>
   </g>
   <g id="patch_3">
    <path d="M 111.6 93.439951
Q 111.6 106.20056 111.6 117.060511
" clip-path="url(#p10567e2240)" style="fill: none; stroke: #087f83; stroke-width: 1.7; stroke-linecap: round"/>
    <path d="M 114.4 111.460511
L 111.6 117.060511
L 108.8 111.460511
z
" clip-path="url(#p10567e2240)" style="fill: #087f83; stroke: #087f83; stroke-width: 1.7; stroke-linecap: round"/>
   </g>
   <g id="patch_4">
    <path d="M 320.4 93.439951
Q 320.4 106.20056 320.4 117.060511
" clip-path="url(#p10567e2240)" style="fill: none; stroke: #087f83; stroke-width: 1.7; stroke-linecap: round"/>
    <path d="M 323.2 111.460511
L 320.4 117.060511
L 317.6 111.460511
z
" clip-path="url(#p10567e2240)" style="fill: #087f83; stroke: #087f83; stroke-width: 1.7; stroke-linecap: round"/>
   </g>
   <g id="patch_5">
    <path d="M 36 185.04
L 187.2 185.04
Q 194.4 185.04 194.4 177.84
L 194.4 129.6
Q 194.4 122.4 187.2 122.4
L 36 122.4
Q 28.8 122.4 28.8 129.6
L 28.8 177.84
Q 28.8 185.04 36 185.04
z
" clip-path="url(#p10567e2240)" style="fill: #eaf3fc; stroke: #225c96; stroke-width: 1.4; stroke-linejoin: miter"/>
   </g>
   <g id="patch_6">
    <path d="M 244.8 185.04
L 396 185.04
Q 403.2 185.04 403.2 177.84
L 403.2 129.6
Q 403.2 122.4 396 122.4
L 244.8 122.4
Q 237.6 122.4 237.6 129.6
L 237.6 177.84
Q 237.6 185.04 244.8 185.04
z
" clip-path="url(#p10567e2240)" style="fill: #e7f4f1; stroke: #087f83; stroke-width: 1.4; stroke-linejoin: miter"/>
   </g>
   <g id="patch_7">
    <path d="M 111.6 187.042588
Q 111.6 196.201792 111.6 203.460339
" clip-path="url(#p10567e2240)" style="fill: none; stroke: #225c96; stroke-width: 1.7; stroke-linecap: round"/>
    <path d="M 114.4 197.860339
L 111.6 203.460339
L 108.8 197.860339
z
" clip-path="url(#p10567e2240)" style="fill: #225c96; stroke: #225c96; stroke-width: 1.7; stroke-linecap: round"/>
   </g>
   <g id="patch_8">
    <path d="M 320.4 187.042588
Q 320.4 196.201792 320.4 203.460339
" clip-path="url(#p10567e2240)" style="fill: none; stroke: #087f83; stroke-width: 1.7; stroke-linecap: round"/>
    <path d="M 323.2 197.860339
L 320.4 203.460339
L 317.6 197.860339
z
" clip-path="url(#p10567e2240)" style="fill: #087f83; stroke: #087f83; stroke-width: 1.7; stroke-linecap: round"/>
   </g>
   <g id="patch_9">
    <path d="M 36 254.88
L 187.2 254.88
Q 194.4 254.88 194.4 247.68
L 194.4 216
Q 194.4 208.8 187.2 208.8
L 36 208.8
Q 28.8 208.8 28.8 216
L 28.8 247.68
Q 28.8 254.88 36 254.88
z
" clip-path="url(#p10567e2240)" style="fill: #ffffff; stroke: #b3c5d5; stroke-width: 1.4; stroke-linejoin: miter"/>
   </g>
   <g id="patch_10">
    <path d="M 244.8 254.88
L 396 254.88
Q 403.2 254.88 403.2 247.68
L 403.2 216
Q 403.2 208.8 396 208.8
L 244.8 208.8
Q 237.6 208.8 237.6 216
L 237.6 247.68
Q 237.6 254.88 244.8 254.88
z
" clip-path="url(#p10567e2240)" style="fill: #ffffff; stroke: #b3c5d5; stroke-width: 1.4; stroke-linejoin: miter"/>
   </g>
   <g id="patch_11">
    <path d="M 113.316724 255.910034
Q 135.001218 268.920731 155.055912 280.953547
" clip-path="url(#p10567e2240)" style="fill: none; stroke: #225c96; stroke-width: 1.7; stroke-linecap: round"/>
    <path d="M 151.69454 275.671391
L 155.055912 280.953547
L 148.813364 280.473351
z
" clip-path="url(#p10567e2240)" style="fill: #225c96; stroke: #225c96; stroke-width: 1.7; stroke-linecap: round"/>
   </g>
   <g id="patch_12">
    <path d="M 318.683276 255.910034
Q 296.998782 268.920731 276.944088 280.953547
" clip-path="url(#p10567e2240)" style="fill: none; stroke: #087f83; stroke-width: 1.7; stroke-linecap: round"/>
    <path d="M 283.186636 280.473351
L 276.944088 280.953547
L 280.30546 275.671391
z
" clip-path="url(#p10567e2240)" style="fill: #087f83; stroke: #087f83; stroke-width: 1.7; stroke-linecap: round"/>
   </g>
   <g id="patch_13">
    <path d="M 36 329.76
L 396 329.76
Q 403.2 329.76 403.2 322.56
L 403.2 290.88
Q 403.2 283.68 396 283.68
L 36 283.68
Q 28.8 283.68 28.8 290.88
L 28.8 322.56
Q 28.8 329.76 36 329.76
z
" clip-path="url(#p10567e2240)" style="fill: #f0f4f8; stroke: #b3c5d5; stroke-width: 1.4; stroke-linejoin: miter"/>
   </g>
   <g id="patch_14">
    <path d="M 111.6 331.759995
Q 111.6 355.320149 111.6 376.979645
" clip-path="url(#p10567e2240)" style="fill: none; stroke: #225c96; stroke-width: 1.7; stroke-linecap: round"/>
    <path d="M 114.4 371.379645
L 111.6 376.979645
L 108.8 371.379645
z
" clip-path="url(#p10567e2240)" style="fill: #225c96; stroke: #225c96; stroke-width: 1.7; stroke-linecap: round"/>
   </g>
   <g id="patch_15">
    <path d="M 320.4 331.759995
Q 320.4 355.320149 320.4 376.979645
" clip-path="url(#p10567e2240)" style="fill: none; stroke-dasharray: 6.29,2.72; stroke-dashoffset: 0; stroke: #995719; stroke-width: 1.7; stroke-linecap: round"/>
    <path d="M 323.2 371.379645
L 320.4 376.979645
L 317.6 371.379645
z
" clip-path="url(#p10567e2240)" style="fill: #995719; stroke-dasharray: 6.29,2.72; stroke-dashoffset: 0; stroke: #995719; stroke-width: 1.7; stroke-linecap: round"/>
   </g>
   <g id="patch_16">
    <path d="M 36 442.8
L 187.2 442.8
Q 194.4 442.8 194.4 435.6
L 194.4 388.8
Q 194.4 381.6 187.2 381.6
L 36 381.6
Q 28.8 381.6 28.8 388.8
L 28.8 435.6
Q 28.8 442.8 36 442.8
z
" clip-path="url(#p10567e2240)" style="fill: #eaf3fc; stroke: #225c96; stroke-width: 1.4; stroke-linejoin: miter"/>
   </g>
   <g id="patch_17">
    <path d="M 244.8 442.8
L 396 442.8
Q 403.2 442.8 403.2 435.6
L 403.2 388.8
Q 403.2 381.6 396 381.6
L 244.8 381.6
Q 237.6 381.6 237.6 388.8
L 237.6 435.6
Q 237.6 442.8 244.8 442.8
z
" clip-path="url(#p10567e2240)" style="fill: #fff2de; stroke: #995719; stroke-width: 1.4; stroke-linejoin: miter"/>
   </g>
   <g id="patch_18">
    <path d="M 113.328369 443.798613
Q 127.797426 452.158513 140.620771 459.567556
" clip-path="url(#p10567e2240)" style="fill: none; stroke: #225c96; stroke-width: 1.7; stroke-linecap: round"/>
    <path d="M 137.172703 454.34158
L 140.620771 459.567556
L 134.371149 459.190424
z
" clip-path="url(#p10567e2240)" style="fill: #225c96; stroke: #225c96; stroke-width: 1.7; stroke-linecap: round"/>
   </g>
   <g id="patch_19">
    <path d="M 318.671631 443.798613
Q 304.202574 452.158513 291.379229 459.567556
" clip-path="url(#p10567e2240)" style="fill: none; stroke-dasharray: 6.29,2.72; stroke-dashoffset: 0; stroke: #995719; stroke-width: 1.7; stroke-linecap: round"/>
    <path d="M 297.628851 459.190424
L 291.379229 459.567556
L 294.827297 454.34158
z
" clip-path="url(#p10567e2240)" style="fill: #995719; stroke-dasharray: 6.29,2.72; stroke-dashoffset: 0; stroke: #995719; stroke-width: 1.7; stroke-linecap: round"/>
   </g>
   <g id="patch_20">
    <path d="M 36 498.24
L 396 498.24
Q 403.2 498.24 403.2 491.04
L 403.2 469.44
Q 403.2 462.24 396 462.24
L 36 462.24
Q 28.8 462.24 28.8 469.44
L 28.8 491.04
Q 28.8 498.24 36 498.24
z
" clip-path="url(#p10567e2240)" style="fill: #e7f4f1; stroke: #087f83; stroke-width: 1.4; stroke-linejoin: miter"/>
   </g>
   <g id="text_1">
    <text style="font-weight: 700; font-size: 22px; font-family: 'DejaVu Sans', 'Arial', 'Bitstream Vera Sans', 'Computer Modern Sans Serif', 'Lucida Grande', 'Verdana', 'Geneva', 'Lucid', 'Helvetica', 'Avant Garde', sans-serif; text-anchor: middle; fill: #18324b" x="216" y="31.241875" transform="rotate(-0 216 31.241875)">Paired sensor evidence</text>
   </g>
   <g id="text_2">
    <text style="font-size: 18px; font-family: 'DejaVu Sans', 'Arial', 'Bitstream Vera Sans', 'Computer Modern Sans Serif', 'Lucida Grande', 'Verdana', 'Geneva', 'Lucid', 'Helvetica', 'Avant Garde', sans-serif; text-anchor: middle; fill: #18324b" x="216" y="73.366875" transform="rotate(-0 216 73.366875)">Physics-calibrated simulation</text>
   </g>
   <g id="text_3">
    <text style="font-size: 18px; font-family: 'DejaVu Sans', 'Arial', 'Bitstream Vera Sans', 'Computer Modern Sans Serif', 'Lucida Grande', 'Verdana', 'Geneva', 'Lucid', 'Helvetica', 'Avant Garde', sans-serif; fill: #18324b" transform="translate(61.304062 146.986875)">RGB image</text>
    <text style="font-size: 18px; font-family: 'DejaVu Sans', 'Arial', 'Bitstream Vera Sans', 'Computer Modern Sans Serif', 'Lucida Grande', 'Verdana', 'Geneva', 'Lucid', 'Helvetica', 'Avant Garde', sans-serif; fill: #18324b" transform="translate(61.3125 172.130625)">RGB model</text>
   </g>
   <g id="text_4">
    <text style="font-size: 18px; font-family: 'DejaVu Sans', 'Arial', 'Bitstream Vera Sans', 'Computer Modern Sans Serif', 'Lucida Grande', 'Verdana', 'Geneva', 'Lucid', 'Helvetica', 'Avant Garde', sans-serif; fill: #18324b" transform="translate(264.013594 146.986875)">ToF readings</text>
    <text style="font-size: 18px; font-family: 'DejaVu Sans', 'Arial', 'Bitstream Vera Sans', 'Computer Modern Sans Serif', 'Lucida Grande', 'Verdana', 'Geneva', 'Lucid', 'Helvetica', 'Avant Garde', sans-serif; fill: #18324b" transform="translate(274.862812 172.130625)">ToF model</text>
   </g>
   <g id="text_5">
    <text style="font-size: 18px; font-family: 'DejaVu Sans', 'Arial', 'Bitstream Vera Sans', 'Computer Modern Sans Serif', 'Lucida Grande', 'Verdana', 'Geneva', 'Lucid', 'Helvetica', 'Avant Garde', sans-serif; text-anchor: middle; fill: #18324b" x="111.6" y="238.550625" transform="rotate(-0 111.6 238.550625)">Class distribution</text>
   </g>
   <g id="text_6">
    <text style="font-size: 18px; font-family: 'DejaVu Sans', 'Arial', 'Bitstream Vera Sans', 'Computer Modern Sans Serif', 'Lucida Grande', 'Verdana', 'Geneva', 'Lucid', 'Helvetica', 'Avant Garde', sans-serif; text-anchor: middle; fill: #18324b" x="320.4" y="238.550625" transform="rotate(-0 320.4 238.550625)">Class distribution</text>
   </g>
   <g id="text_7">
    <text style="font-size: 18px; font-family: 'DejaVu Sans', 'Arial', 'Bitstream Vera Sans', 'Computer Modern Sans Serif', 'Lucida Grande', 'Verdana', 'Geneva', 'Lucid', 'Helvetica', 'Avant Garde', sans-serif; text-anchor: middle; fill: #18324b" x="216" y="311.686875" transform="rotate(-0 216 311.686875)">Check signal quality + disagreement</text>
   </g>
   <g id="text_8">
    <text style="font-size: 18px; font-family: 'DejaVu Sans', 'Arial', 'Bitstream Vera Sans', 'Computer Modern Sans Serif', 'Lucida Grande', 'Verdana', 'Geneva', 'Lucid', 'Helvetica', 'Avant Garde', sans-serif; fill: #18324b" transform="translate(70.654219 407.210625)">Standard</text>
    <text style="font-size: 18px; font-family: 'DejaVu Sans', 'Arial', 'Bitstream Vera Sans', 'Computer Modern Sans Serif', 'Lucida Grande', 'Verdana', 'Geneva', 'Lucid', 'Helvetica', 'Avant Garde', sans-serif; fill: #18324b" transform="translate(84.328594 430.610625)">fusion</text>
   </g>
   <g id="text_9">
    <text style="font-size: 18px; font-family: 'DejaVu Sans', 'Arial', 'Bitstream Vera Sans', 'Computer Modern Sans Serif', 'Lucida Grande', 'Verdana', 'Geneva', 'Lucid', 'Helvetica', 'Avant Garde', sans-serif; fill: #995719" transform="translate(252.490781 405.466875)">Escalated only:</text>
    <text style="font-size: 18px; font-family: 'DejaVu Sans', 'Arial', 'Bitstream Vera Sans', 'Computer Modern Sans Serif', 'Lucida Grande', 'Verdana', 'Geneva', 'Lucid', 'Helvetica', 'Avant Garde', sans-serif; fill: #995719" transform="translate(272.988281 430.610625)">arbitration</text>
   </g>
   <g id="text_10">
    <text style="font-size: 18px; font-family: 'DejaVu Sans', 'Arial', 'Bitstream Vera Sans', 'Computer Modern Sans Serif', 'Lucida Grande', 'Verdana', 'Geneva', 'Lucid', 'Helvetica', 'Avant Garde', sans-serif; text-anchor: middle; fill: #18324b" x="216" y="486.950625" transform="rotate(-0 216 486.950625)">Predicted state + decision trace</text>
   </g>
  </g>
 </g>
 <defs>
  <clipPath id="p10567e2240">
   <rect x="0" y="0" width="432" height="504"/>
  </clipPath>
 </defs>
</svg>
